<svg width="21" height="29" viewBox="0 0 21 29" fill="none" xmlns="http://www.w3.org/2000/svg">
<path d="M13.0096 28.0131H12.9396H7.0096C5.81801 28.041 4.62577 28.0077 3.4376 27.9131C2.99783 27.9252 2.5602 27.8476 2.15145 27.6849C1.74269 27.5222 1.37139 27.2779 1.06021 26.9669C0.749034 26.6559 0.504513 26.2848 0.341587 25.8761C0.17866 25.4675 0.100747 25.0299 0.112602 24.5901C0.0162999 23.4004 -0.0180805 22.2064 0.00960127 21.0131V7.0131C-0.0184355 5.82151 0.0149405 4.62924 0.1096 3.44108C0.0971965 3.00132 0.174622 2.56364 0.337139 2.15482C0.499656 1.74601 0.743853 1.37468 1.05479 1.06345C1.36574 0.752231 1.73689 0.507712 2.14556 0.344826C2.55423 0.18194 2.99183 0.104121 3.4316 0.116127C4.62168 0.0198444 5.81596 -0.0145626 7.0096 0.0130997H12.8496C12.8972 0.00512997 12.9453 0.000783672 12.9936 9.91879e-05C13.0641 -0.000912159 13.1345 0.00581393 13.2036 0.0201187C13.9747 -0.0457932 14.7503 0.0767184 15.4636 0.377113C16.3125 0.896899 17.0733 1.54836 17.7176 2.30711C18.4774 2.95288 19.1293 3.71582 19.6486 4.56712C19.9478 5.27859 20.07 6.05201 20.0046 6.82108C20.0286 6.94038 20.0306 7.06306 20.0106 7.18308V21.0131C20.0388 22.2054 20.0054 23.3983 19.9106 24.5871C19.9225 25.0269 19.8445 25.4645 19.6816 25.8731C19.5187 26.2818 19.2742 26.6529 18.963 26.9639C18.6518 27.2749 18.2805 27.5192 17.8718 27.6819C17.463 27.8445 17.0254 27.9222 16.5856 27.9101C15.4464 28.0027 14.3032 28.0362 13.1606 28.0101L13.0096 28.0131ZM3.6576 2.10007C3.44428 2.06199 3.22491 2.07608 3.01819 2.14109C2.81148 2.2061 2.62354 2.3201 2.47041 2.47343C2.31728 2.62675 2.2035 2.81485 2.13876 3.02164C2.07402 3.22844 2.06024 3.44784 2.0986 3.66111C2.0156 4.41311 2.0096 5.5131 2.0096 7.0131V21.0131C2.0096 22.5131 2.0156 23.6181 2.0996 24.3651C2.06146 24.5784 2.07548 24.7977 2.14049 25.0044C2.20549 25.2111 2.31954 25.399 2.4729 25.5521C2.62626 25.7052 2.81437 25.8189 3.02119 25.8835C3.228 25.9481 3.44739 25.9616 3.6606 25.9231C4.4066 26.0071 5.5156 26.0131 7.0106 26.0131H13.0106H13.0806C14.5346 26.0131 15.6276 26.0061 16.3596 25.9231C16.5728 25.9614 16.7921 25.9477 16.9988 25.883C17.2055 25.8183 17.3935 25.7046 17.5468 25.5516C17.7001 25.3985 17.8141 25.2108 17.8792 25.0042C17.9443 24.7976 17.9585 24.5783 17.9206 24.3651C18.0056 23.6191 18.0106 22.5101 18.0106 21.0131V8.0131H13.0096C12.7444 8.0131 12.49 7.90773 12.3025 7.72019C12.115 7.53266 12.0096 7.27832 12.0096 7.0131V2.0131H7.0096C5.5096 2.0131 4.4036 2.01909 3.6576 2.10209V2.10007ZM14.0096 6.0131H17.9856C17.9802 5.82218 17.9371 5.63425 17.8586 5.46012C17.4085 4.8217 16.886 4.23746 16.3016 3.71909C15.7844 3.13569 15.2019 2.61363 14.5656 2.16312C14.3904 2.08451 14.2015 2.04097 14.0096 2.03507V6.0131ZM15.0096 23.0131H4.9816C4.85028 23.0113 4.7206 22.9836 4.59998 22.9316C4.47936 22.8797 4.37015 22.8045 4.27859 22.7103C4.18704 22.6161 4.11492 22.5049 4.06636 22.3829C4.01781 22.2608 3.99376 22.1304 3.9956 21.9991C3.99744 21.8678 4.02513 21.7381 4.07708 21.6175C4.12903 21.4968 4.20423 21.3877 4.29839 21.2961C4.39255 21.2046 4.50382 21.1324 4.62585 21.0838C4.74788 21.0353 4.87828 21.0113 5.0096 21.0131H15.0386C15.3038 21.0151 15.5574 21.1224 15.7435 21.3113C15.9296 21.5003 16.0331 21.7554 16.0311 22.0206C16.0291 22.2858 15.9218 22.5394 15.7329 22.7255C15.544 22.9116 15.2888 23.0151 15.0236 23.0131H15.0096ZM15.0096 19.0131H4.9816C4.85028 19.0113 4.7206 18.9836 4.59998 18.9316C4.47936 18.8797 4.37015 18.8045 4.27859 18.7103C4.18704 18.6161 4.11492 18.5049 4.06636 18.3829C4.01781 18.2608 3.99376 18.1304 3.9956 17.9991C3.99744 17.8678 4.02513 17.7381 4.07708 17.6175C4.12903 17.4968 4.20423 17.3877 4.29839 17.2961C4.39255 17.2046 4.50382 17.1324 4.62585 17.0838C4.74788 17.0353 4.87828 17.0113 5.0096 17.0131H15.0386C15.3038 17.015 15.5574 17.1221 15.7437 17.311C15.9299 17.4998 16.0335 17.7549 16.0316 18.0201C16.0297 18.2853 15.9226 18.5389 15.7338 18.7251C15.5449 18.9114 15.2898 19.015 15.0246 19.0131H15.0096ZM15.0096 15.0131H4.9816C4.85028 15.0113 4.7206 14.9836 4.59998 14.9316C4.47936 14.8797 4.37015 14.8045 4.27859 14.7103C4.18704 14.6161 4.11492 14.5049 4.06636 14.3829C4.01781 14.2608 3.99376 14.1304 3.9956 13.9991C3.99744 13.8678 4.02513 13.7381 4.07708 13.6175C4.12903 13.4968 4.20423 13.3877 4.29839 13.2961C4.39255 13.2046 4.50382 13.1324 4.62585 13.0838C4.74788 13.0353 4.87828 13.0113 5.0096 13.0131H15.0386C15.3038 13.0151 15.5574 13.1224 15.7435 13.3113C15.9296 13.5003 16.0331 13.7554 16.0311 14.0206C16.0291 14.2858 15.9218 14.5394 15.7329 14.7255C15.544 14.9116 15.2888 15.0151 15.0236 15.0131H15.0096Z" fill="#373A48"/>
</svg>
