<svg xmlns="http://www.w3.org/2000/svg" x="0px" y="0px" width="22" height="22" viewBox="0 0 80 80">
<path d="M 9 11 C 6.800781 11 5 12.800781 5 15 L 5 66 L 5.007813 66 C 5.015625 67.601563 6.332031 69 8 69 L 66.871094 69 C 68.578125 69 70.066406 67.789063 70.410156 66.113281 L 76.578125 36.140625 C 76.910156 34.539063 75.65625 33 74.019531 33 L 70 33 L 70 21 C 70 18.800781 68.199219 17 66 17 L 28.167969 17 L 27.203125 14.691406 C 26.273438 12.460938 24.085938 11 21.667969 11 Z M 9 13 L 21.667969 13 C 23.285156 13 24.738281 13.96875 25.359375 15.460938 L 26.832031 19 L 66 19 C 67.117188 19 68 19.882813 68 21 L 68 33 L 14.992188 33 C 13.097656 33 11.457031 34.339844 11.074219 36.191406 L 7 55.984375 L 7 15 C 7 13.882813 7.882813 13 9 13 Z M 14.992188 35 L 68 35 C 68 35.550781 68.449219 36 69 36 C 69.550781 36 70 35.550781 70 35 L 74.019531 35 C 74.429688 35 74.703125 35.335938 74.621094 35.738281 L 69.917969 58.597656 C 69.757813 58.234375 69.398438 58 69 58 C 68.449219 58 68 58.449219 68 59 C 68 59.550781 68.449219 60 69 60 C 69.253906 60 69.5 59.902344 69.683594 59.730469 L 69.210938 62.023438 C 69.140625 62.007813 69.070313 62 69 62 C 68.449219 62 68 62.449219 68 63 C 68 63.476563 68.339844 63.890625 68.808594 63.980469 L 68.453125 65.714844 C 68.296875 66.46875 67.640625 67 66.871094 67 L 8 67 C 7.347656 67 6.890625 66.4375 7.023438 65.796875 L 13.03125 36.59375 C 13.226563 35.660156 14.035156 35 14.992188 35 Z M 69 38 C 68.449219 38 68 38.449219 68 39 C 68 39.550781 68.449219 40 69 40 C 69.550781 40 70 39.550781 70 39 C 70 38.449219 69.550781 38 69 38 Z M 69 42 C 68.449219 42 68 42.449219 68 43 C 68 43.550781 68.449219 44 69 44 C 69.550781 44 70 43.550781 70 43 C 70 42.449219 69.550781 42 69 42 Z M 69 46 C 68.449219 46 68 46.449219 68 47 C 68 47.550781 68.449219 48 69 48 C 69.550781 48 70 47.550781 70 47 C 70 46.449219 69.550781 46 69 46 Z M 69 50 C 68.449219 50 68 50.449219 68 51 C 68 51.550781 68.449219 52 69 52 C 69.550781 52 70 51.550781 70 51 C 70 50.449219 69.550781 50 69 50 Z M 69 54 C 68.449219 54 68 54.449219 68 55 C 68 55.550781 68.449219 56 69 56 C 69.550781 56 70 55.550781 70 55 C 70 54.449219 69.550781 54 69 54 Z M 9 62 C 8.449219 62 8 62.449219 8 63 C 8 63.550781 8.449219 64 9 64 C 9.550781 64 10 63.550781 10 63 C 10 62.449219 9.550781 62 9 62 Z M 13 62 C 12.449219 62 12 62.449219 12 63 C 12 63.550781 12.449219 64 13 64 C 13.550781 64 14 63.550781 14 63 C 14 62.449219 13.550781 62 13 62 Z M 17 62 C 16.449219 62 16 62.449219 16 63 C 16 63.550781 16.449219 64 17 64 C 17.550781 64 18 63.550781 18 63 C 18 62.449219 17.550781 62 17 62 Z M 21 62 C 20.449219 62 20 62.449219 20 63 C 20 63.550781 20.449219 64 21 64 C 21.550781 64 22 63.550781 22 63 C 22 62.449219 21.550781 62 21 62 Z M 25 62 C 24.449219 62 24 62.449219 24 63 C 24 63.550781 24.449219 64 25 64 C 25.550781 64 26 63.550781 26 63 C 26 62.449219 25.550781 62 25 62 Z M 29 62 C 28.449219 62 28 62.449219 28 63 C 28 63.550781 28.449219 64 29 64 C 29.550781 64 30 63.550781 30 63 C 30 62.449219 29.550781 62 29 62 Z M 33 62 C 32.449219 62 32 62.449219 32 63 C 32 63.550781 32.449219 64 33 64 C 33.550781 64 34 63.550781 34 63 C 34 62.449219 33.550781 62 33 62 Z M 37 62 C 36.449219 62 36 62.449219 36 63 C 36 63.550781 36.449219 64 37 64 C 37.550781 64 38 63.550781 38 63 C 38 62.449219 37.550781 62 37 62 Z M 41 62 C 40.449219 62 40 62.449219 40 63 C 40 63.550781 40.449219 64 41 64 C 41.550781 64 42 63.550781 42 63 C 42 62.449219 41.550781 62 41 62 Z M 45 62 C 44.449219 62 44 62.449219 44 63 C 44 63.550781 44.449219 64 45 64 C 45.550781 64 46 63.550781 46 63 C 46 62.449219 45.550781 62 45 62 Z M 49 62 C 48.449219 62 48 62.449219 48 63 C 48 63.550781 48.449219 64 49 64 C 49.550781 64 50 63.550781 50 63 C 50 62.449219 49.550781 62 49 62 Z M 53 62 C 52.449219 62 52 62.449219 52 63 C 52 63.550781 52.449219 64 53 64 C 53.550781 64 54 63.550781 54 63 C 54 62.449219 53.550781 62 53 62 Z M 57 62 C 56.449219 62 56 62.449219 56 63 C 56 63.550781 56.449219 64 57 64 C 57.550781 64 58 63.550781 58 63 C 58 62.449219 57.550781 62 57 62 Z M 61 62 C 60.449219 62 60 62.449219 60 63 C 60 63.550781 60.449219 64 61 64 C 61.550781 64 62 63.550781 62 63 C 62 62.449219 61.550781 62 61 62 Z M 65 62 C 64.449219 62 64 62.449219 64 63 C 64 63.550781 64.449219 64 65 64 C 65.550781 64 66 63.550781 66 63 C 66 62.449219 65.550781 62 65 62 Z"></path>
</svg>
