<svg width="23" height="22" viewBox="0 0 23 22" fill="none" xmlns="http://www.w3.org/2000/svg">
<path d="M17.3 13V7.99999C17.2711 6.40631 16.6177 4.88766 15.4805 3.77084C14.3432 2.65401 12.8129 2.02828 11.219 2.02828C9.62505 2.02828 8.09478 2.65401 6.95752 3.77084C5.82026 4.88766 5.16684 6.40631 5.13794 7.99999V13C5.13891 13.7031 4.95178 14.3936 4.59595 15H17.843C17.4868 14.3937 17.2994 13.7032 17.3 13ZM21.354 17H1.08398C0.818768 17 0.564489 16.8946 0.376953 16.7071C0.189417 16.5196 0.0839844 16.2652 0.0839844 16C0.0839844 15.7348 0.189417 15.4804 0.376953 15.2929C0.564489 15.1053 0.818768 15 1.08398 15C1.61796 15.0035 2.13149 14.7947 2.5116 14.4197C2.89171 14.0446 3.10726 13.534 3.11096 13V7.99999C3.14439 5.87167 4.01336 3.84184 5.53027 2.34856C7.04718 0.855293 9.09041 0.0183411 11.219 0.0183411C13.3476 0.0183411 15.3908 0.855293 16.9077 2.34856C18.4246 3.84184 19.2936 5.87167 19.327 7.99999V13C19.3307 13.534 19.5463 14.0446 19.9264 14.4197C20.3065 14.7947 20.82 15.0035 21.354 15C21.6192 15 21.8736 15.1053 22.0612 15.2929C22.2487 15.4804 22.354 15.7348 22.354 16C22.354 16.2652 22.2487 16.5196 22.0612 16.7071C21.8736 16.8946 21.6192 17 21.354 17ZM13.849 20.5C13.5777 20.9556 13.1926 21.333 12.7316 21.595C12.2705 21.8571 11.7493 21.9948 11.219 21.9948C10.6887 21.9948 10.1675 21.8571 9.70642 21.595C9.24538 21.333 8.86032 20.9556 8.58899 20.5C8.50074 20.3472 8.45448 20.1737 8.45496 19.9972C8.45543 19.8208 8.5026 19.6475 8.59167 19.4952C8.68075 19.3429 8.8086 19.2168 8.96216 19.1298C9.11571 19.0428 9.28948 18.998 9.46594 19H12.973C13.1494 18.9982 13.3231 19.0431 13.4766 19.1302C13.63 19.2172 13.7576 19.3433 13.8466 19.4956C13.9355 19.648 13.9826 19.8211 13.983 19.9975C13.9835 20.1739 13.9372 20.3472 13.849 20.5Z" fill="#809FB8"/>
</svg>
