<svg xmlns="http://www.w3.org/2000/svg" width="21" height="18" viewBox="0 0 21 18" fill="none">
  <path d="M1 14.9216V2.31958C1 1.7673 1.44772 1.31958 2 1.31958H9.14956C9.4446 1.31958 9.72458 1.44987 9.91459 1.67559L10.1765 1.98672C10.3763 2.22405 10.7417 2.22405 10.9415 1.98672L11.2034 1.67559C11.3934 1.44987 11.6734 1.31958 11.9685 1.31958H19C19.5523 1.31958 20 1.7673 20 2.31958V14.9216C20 15.4739 19.5523 15.9216 19 15.9216H11.9685C11.6734 15.9216 11.3934 16.0519 11.2034 16.2776L10.9415 16.5887C10.7417 16.8261 10.3763 16.8261 10.1765 16.5887L9.91459 16.2776C9.72458 16.0519 9.4446 15.9216 9.14956 15.9216H2C1.44772 15.9216 1 15.4739 1 14.9216Z" strokeWidth="1.5"/>
  <path d="M20 6.18262H12.9783L14.2174 9.01935L12.9783 11.8561H20" strokeWidth="1.5"/>
</svg>
